<?xml version="1.0" encoding="utf-8"?>
<!-- Generator: Adobe Illustrator 24.0.1, SVG Export Plug-In . SVG Version: 6.00 Build 0)  -->
<svg version="1.1" id="Layer_1" xmlns="http://www.w3.org/2000/svg" xmlns:xlink="http://www.w3.org/1999/xlink" x="0px" y="0px"
	 viewBox="0 0 334.2 324" style="enable-background:new 0 0 334.2 324;" xml:space="preserve">
<style type="text/css">
	.st0{fill:#231F20;}
</style>
<path class="st0" d="M302.7,141.9L162.9,281.8L46.1,165L185.8,25.3L162.5,2L11.1,153.4c-6.4,6.4-6.4,16.8,0,23.1l140.2,140.2
	c6.4,6.4,16.8,6.4,23.1,0L326,165.2L302.7,141.9z"/>
<path class="st0" d="M244.2,153.3V153l0.1-0.1l-0.1-69.5l-70-0.2l-70,70.2c-6.4,6.4-6.4,16.8,0,23.1l0.1,0.1
	c6.4,6.4,16.8,6.4,23.1,0l61.1-61.1l23.4,0v23.1L150.7,200c-6.4,6.4-6.4,16.8,0,23.1l0.1,0.1c6.4,6.4,16.8,6.4,23.1,0l69.8-69.8
	L244.2,153.3z"/>
</svg>
